<svg fill="none" viewBox="0 -2 16 16" xmlns="http://www.w3.org/2000/svg"><path d="m7 10.2939c-1.51685 0-2.99287-.1212-4.41353-.283-.82074-.09353-1.50655-.69319-1.639828-1.50842-.134436-.8223-.196642-1.6731-.196642-2.84863s.062204-2.02628.196638-2.84854c.133282-.81522.819092-1.41489 1.639832-1.50837 1.42066-.1618 2.89668-.28303 4.41353-.28303 1.51686 0 2.99287.12123 4.4135.28303.8208.09348 1.5066.69315 1.6399 1.50837.1344.82226.1966 1.67301.1966 2.84854s-.0622 2.02633-.1966 2.84863c-.1333.81523-.8191 1.41489-1.6399 1.50842-1.42063.1618-2.89664.283-4.4135.283z" fill=""/><g stroke="#fbfbfe" stroke-linejoin="round" stroke-width="1.1"><path d="m13.1813 7.47579c.0465-.53355.0687-1.11983.0687-1.82195 0-1.17553-.0622-2.02628-.1966-2.84854-.1333-.81522-.8191-1.41489-1.6399-1.50836-1.42063-.16181-2.89664-.28304-4.4135-.28304-1.51685 0-2.99287.12123-4.41353.28304-.82074.09347-1.50655.69314-1.639832 1.50836-.134434.82226-.196638 1.67301-.196638 2.84854 0 1.17554.062206 2.02634.196642 2.84864.133278.81522.819098 1.41489 1.639838 1.50832.91379.1041 1.85048.1914 2.80621.2404" stroke-linecap="round"/><path d="m1.11719 1.90234 4.64479 3.66336c.72609.57267 1.75011.57288 2.47644.0005l4.64438-3.65995"/><g stroke-linecap="round"><path d="m10.75 8.5v5"/><path d="m8.25 11h5"/></g></g></svg>
